<svg width="133" height="119" fill="none" xmlns="http://www.w3.org/2000/svg"><g clip-path="url(#clip0)" fill="#00519C"><path d="M0 94.364c0 1.925 1.734 3.486 3.874 3.486s3.874-1.56 3.874-3.486V92.04c0-9.42 2.577-18.31 7.132-26.144 13.474 15.546 34.022 24.981 56.655 24.981 22.06 0 43.249-9.286 56.816-25.566l3.099-3.72.013-.016c1.015-1.232 1.01-2.923 0-4.15l-.013-.017-3.099-3.719c-13.384-16.06-34.453-25.567-56.816-25.567-22.623 0-43.178 9.431-56.655 24.982-4.555-7.833-7.132-16.724-7.132-26.143v-2.325c0-1.925-1.735-3.486-3.874-3.486C1.734 21.15 0 22.71 0 24.636v2.325C0 38.582 3.48 49.74 9.996 59.5 3.48 69.26 0 80.417 0 92.04v2.324zm122.153-36.491l1.356 1.627-1.356 1.627c-8.87 10.643-21.659 18.084-35.81 21.176-5.4-6.57-8.351-14.587-8.351-22.803 0-8.216 2.952-16.232 8.35-22.803 14.152 3.092 26.941 10.532 35.811 21.176zM71.535 35.095c2.153 0 4.295.107 6.419.305-5.005 7.18-7.71 15.55-7.71 24.1s2.705 16.92 7.71 24.1a69.29 69.29 0 01-6.418.305c-21.63 0-40.777-9.663-52.317-24.405 11.54-14.742 30.687-24.405 52.316-24.405z"/><path d="M85.74 59.5c0 5.767 5.213 10.46 11.62 10.46 6.409 0 11.622-4.693 11.622-10.46 0-5.767-5.213-10.46-11.621-10.46S85.739 53.734 85.739 59.5zm11.62-3.486c2.137 0 3.874 1.563 3.874 3.486 0 1.922-1.737 3.486-3.873 3.486s-3.874-1.564-3.874-3.486c0-1.922 1.738-3.486 3.874-3.486z"/></g><defs><clipPath id="clip0"><path fill="#fff" d="M0 0h132.222v119H0z"/></clipPath></defs></svg>