<svg width="31" height="25" fill="none" xmlns="http://www.w3.org/2000/svg"><path d="M4.9 0c-.3 0-.6.1-.8.3-.2.2-.3.5-.3.8v17.2c0 .6.5 1.1 1.1 1.1 2.7 0 7.1.6 10.2 3.8v-18c0-.2-.1-.4-.2-.6C12.4.6 7.6 0 4.9 0zm23.3 18.3V1.1c0-.3-.1-.6-.3-.8-.2-.2-.5-.3-.8-.3-2.7 0-7.5.6-10.1 4.7-.1.2-.2.4-.2.6v18c3.1-3.2 7.5-3.8 10.2-3.8.7 0 1.2-.6 1.2-1.2z" fill="#00519C"/><path d="M30.9 4H30v14.4c0 1.6-1.3 2.9-2.9 2.9-2.3 0-6 .4-8.6 2.9 4.6-1.1 9.4-.4 12.1.2.3.1.7 0 1-.2.3-.2.4-.5.4-.9V5.1c0-.6-.5-1.1-1.1-1.1zM2 18.3V4h-.9C.5 4 0 4.5 0 5.1v18.2c0 .4.2.7.4.9.3.2.6.3 1 .2 2.7-.6 7.6-1.4 12.1-.2-2.6-2.5-6.4-2.9-8.6-2.9-1.6-.1-2.9-1.4-2.9-3z" fill="#00519C"/></svg>