<svg width="51" height="6" fill="none" xmlns="http://www.w3.org/2000/svg"><path d="M43.907 6c-1.957 0-2.936-1.277-3.792-2.426-.856-1.02-1.345-1.66-2.324-1.66-1.1 0-1.59.64-2.323 1.66C34.61 4.596 33.633 6 31.676 6c-1.957 0-2.935-1.277-3.791-2.426-.856-1.02-1.345-1.66-2.324-1.66-1.1 0-1.59.64-2.324 1.66C22.381 4.596 21.403 6 19.446 6c-1.957 0-2.935-1.277-3.791-2.426-.856-1.02-1.346-1.66-2.324-1.66-1.1 0-1.59.64-2.324 1.66C10.03 4.596 9.05 6 7.094 6 5.137 6 4.158 4.723 3.302 3.574c-.856-1.148-1.345-1.66-2.446-1.66-.49 0-.856-.51-.856-1.02C0 .383.367 0 .856 0c1.957 0 2.935 1.277 3.791 2.426.857 1.02 1.346 1.66 2.324 1.66.979 0 1.59-.64 2.446-1.66C10.273 1.276 11.252 0 13.21 0c1.956 0 2.934 1.277 3.79 2.426.856 1.02 1.345 1.66 2.324 1.66 1.1 0 1.59-.64 2.323-1.66C22.505 1.276 23.483 0 25.44 0s2.935 1.277 3.791 2.426c.856 1.02 1.346 1.66 2.324 1.66 1.1 0 1.59-.64 2.324-1.66C34.856 1.276 35.834 0 37.79 0c1.957 0 2.936 1.277 3.792 2.426.856 1.02 1.345 1.66 2.324 1.66 1.1 0 1.59-.64 2.323-1.66C47.086 1.276 48.065 0 50.144 0c.49 0 .856.383.856.894 0 .51-.367.893-.856.893-1.1 0-1.59.639-2.324 1.66C46.964 4.596 45.863 6 43.907 6z" fill="#00519C"/></svg>